<svg width="36" height="37" viewBox="0 0 36 37" fill="none" xmlns="http://www.w3.org/2000/svg">
<g clip-path="url(#clip0_6131_7626)">
<mask id="mask0_6131_7626" style="mask-type:luminance" maskUnits="userSpaceOnUse" x="0" y="1" width="36" height="36">
<path d="M35.5 19C35.5 9.33502 27.665 1.5 18 1.5C8.33502 1.5 0.5 9.33502 0.5 19C0.5 28.665 8.33502 36.5 18 36.5C27.665 36.5 35.5 28.665 35.5 19Z" fill="white"/>
</mask>
<g mask="url(#mask0_6131_7626)">
<path d="M35.5 19C35.5 9.33502 27.665 1.5 18 1.5C8.33502 1.5 0.5 9.33502 0.5 19C0.5 28.665 8.33502 36.5 18 36.5C27.665 36.5 35.5 28.665 35.5 19Z" fill="#0143EB"/>
<g opacity="0.8">
<path d="M12.7347 10.1759V9.98056H12.9301V9.78516H13.1255V9.98056H13.3209V10.1759H13.1255V10.3713H12.9301V10.1759H12.7347Z" fill="#F3F3F3"/>
<path d="M14.7261 10.1759V9.98056H14.9214V9.78516H15.1168V9.98056H15.3122V10.1759H15.1168V10.3713H14.9214V10.1759H14.7261Z" fill="#F3F3F3"/>
<path d="M16.7173 10.1763V9.98091H16.9127V9.7855H17.108V9.98091H17.3034V10.1763H17.108V10.3716H16.9127V10.1763H16.7173ZM16.7173 9.00402V8.80865H16.9127V8.61328H17.108V8.80865H17.3034V9.00402H17.108V9.19939H16.9127V9.00402H16.7173Z" fill="#F3F3F3"/>
<path d="M18.7085 10.1763V9.98091H18.9039V9.7855H19.0993V9.98091H19.2946V10.1763H19.0993V10.3716H18.9039V10.1763H18.7085ZM18.7085 9.00402V8.80865H18.9039V8.61328H19.0993V8.80865H19.2946V9.00402H19.0993V9.19939H18.9039V9.00402H18.7085Z" fill="#F3F3F3"/>
<path d="M21.6768 9.97999H21.4814V9.78458H21.6768V9.97999ZM21.6768 8.61236V8.80773H21.4814V8.61236H21.6768ZM20.3091 9.97999V9.78458H20.5045V9.97999H20.3091ZM20.3091 8.80773V8.61236H20.5045V8.80773H20.3091ZM20.6999 9.58921V9.39384H20.1138V9.19847H20.6999V9.0031H20.8953V8.41699H21.0907V9.0031H21.286V9.19847H21.8721V9.39384H21.286V9.58921H21.0907V10.1754H20.8953V9.58921H20.6999ZM20.6999 9.78458H20.5045V9.58921H20.6999V9.78458ZM20.6999 9.0031H20.5045V8.80773H20.6999V9.0031ZM21.4814 9.58921V9.78458H21.286V9.58921H21.4814ZM21.4814 9.0031H21.286V8.80773H21.4814V9.0031Z" fill="#F3F3F3"/>
<path d="M23.668 9.97999H23.4726V9.78458H23.668V9.97999ZM23.668 8.61236V8.80773H23.4726V8.61236H23.668ZM22.3004 9.97999V9.78458H22.4957V9.97999H22.3004ZM22.3004 8.80773V8.61236H22.4957V8.80773H22.3004ZM22.6911 9.58921V9.39384H22.105V9.19847H22.6911V9.0031H22.8865V8.41699H23.0819V9.0031H23.2772V9.19847H23.8633V9.39384H23.2772V9.58921H23.0819V10.1754H22.8865V9.58921H22.6911ZM22.6911 9.78458H22.4957V9.58921H22.6911V9.78458ZM22.6911 9.0031H22.4957V8.80773H22.6911V9.0031ZM23.4726 9.58921V9.78458H23.2772V9.58921H23.4726ZM23.4726 9.0031H23.2772V8.80773H23.4726V9.0031Z" fill="#F3F3F3"/>
<path d="M25.6593 9.97999H25.4639V9.78458H25.6593V9.97999ZM25.6593 8.61236V8.80773H25.4639V8.61236H25.6593ZM24.2917 9.97999V9.78458H24.4871V9.97999H24.2917ZM24.2917 8.80773V8.61236H24.4871V8.80773H24.2917ZM24.6824 9.58921V9.39384H24.0963V9.19847H24.6824V9.0031H24.8778V8.41699H25.0732V9.0031H25.2686V9.19847H25.8547V9.39384H25.2686V9.58921H25.0732V10.1754H24.8778V9.58921H24.6824ZM24.6824 9.78458H24.4871V9.58921H24.6824V9.78458ZM24.6824 9.0031H24.4871V8.80773H24.6824V9.0031ZM25.4639 9.58921V9.78458H25.2686V9.58921H25.4639ZM25.4639 9.0031H25.2686V8.80773H25.4639V9.0031Z" fill="#F3F3F3"/>
<path d="M27.6506 9.97999H27.4553V9.78458H27.6506V9.97999ZM27.6506 8.61236V8.80773H27.4553V8.61236H27.6506ZM26.283 9.97999V9.78458H26.4784V9.97999H26.283ZM26.283 8.80773V8.61236H26.4784V8.80773H26.283ZM26.6738 9.58921V9.39384H26.0876V9.19847H26.6738V9.0031H26.8691V8.41699H27.0645V9.0031H27.2599V9.19847H27.846V9.39384H27.2599V9.58921H27.0645V10.1754H26.8691V9.58921H26.6738ZM26.6738 9.78458H26.4784V9.58921H26.6738V9.78458ZM26.6738 9.0031H26.4784V8.80773H26.6738V9.0031ZM27.4553 9.58921V9.78458H27.2599V9.58921H27.4553ZM27.4553 9.0031H27.2599V8.80773H27.4553V9.0031Z" fill="#F3F3F3"/>
<path d="M29.642 9.97999H29.4466V9.78458H29.642V9.97999ZM29.642 8.61236V8.80773H29.4466V8.61236H29.642ZM28.2744 9.97999V9.78458H28.4697V9.97999H28.2744ZM28.2744 8.80773V8.61236H28.4697V8.80773H28.2744ZM28.6651 9.58921V9.39384H28.079V9.19847H28.6651V9.0031H28.8605V8.41699H29.0558V9.0031H29.2512V9.19847H29.8373V9.39384H29.2512V9.58921H29.0558V10.1754H28.8605V9.58921H28.6651ZM28.6651 9.78458H28.4697V9.58921H28.6651V9.78458ZM28.6651 9.0031H28.4697V8.80773H28.6651V9.0031ZM29.4466 9.58921V9.78458H29.2512V9.58921H29.4466ZM29.4466 9.0031H29.2512V8.80773H29.4466V9.0031Z" fill="#F3F3F3"/>
<path d="M31.6332 9.97999H31.4378V9.78458H31.6332V9.97999ZM31.6332 8.61236V8.80773H31.4378V8.61236H31.6332ZM30.2656 9.97999V9.78458H30.461V9.97999H30.2656ZM30.2656 8.80773V8.61236H30.461V8.80773H30.2656ZM30.6563 9.58921V9.39384H30.0702V9.19847H30.6563V9.0031H30.8517V8.41699H31.0471V9.0031H31.2424V9.19847H31.8286V9.39384H31.2424V9.58921H31.0471V10.1754H30.8517V9.58921H30.6563ZM30.6563 9.78458H30.461V9.58921H30.6563V9.78458ZM30.6563 9.0031H30.461V8.80773H30.6563V9.0031ZM31.4378 9.58921V9.78458H31.2424V9.58921H31.4378ZM31.4378 9.0031H31.2424V8.80773H31.4378V9.0031Z" fill="#F3F3F3"/>
<path d="M33.6245 9.97999H33.4291V9.78458H33.6245V9.97999ZM33.6245 8.61236V8.80773H33.4291V8.61236H33.6245ZM32.2569 9.97999V9.78458H32.4523V9.97999H32.2569ZM32.2569 8.80773V8.61236H32.4523V8.80773H32.2569ZM32.6477 9.58921V9.39384H32.0615V9.19847H32.6477V9.0031H32.843V8.41699H33.0384V9.0031H33.2338V9.19847H33.8199V9.39384H33.2338V9.58921H33.0384V10.1754H32.843V9.58921H32.6477ZM32.6477 9.78458H32.4523V9.58921H32.6477V9.78458ZM32.6477 9.0031H32.4523V8.80773H32.6477V9.0031ZM33.4291 9.58921V9.78458H33.2338V9.58921H33.4291ZM33.4291 9.0031H33.2338V8.80773H33.4291V9.0031Z" fill="#F3F3F3"/>
<path d="M4.76953 14.0841V13.8887H4.9649V13.6934H5.16027V13.8887H5.35568V14.0841H5.16027V14.2795H4.9649V14.0841H4.76953Z" fill="#F3F3F3"/>
<path d="M6.76086 14.0835V13.8881H6.95623V13.6928H7.1516V13.8881H7.34697V14.0835H7.1516V14.2789H6.95623V14.0835H6.76086ZM6.76086 12.9112V12.7159H6.95623V12.5205H7.1516V12.7159H7.34697V12.9112H7.1516V13.1066H6.95623V12.9112H6.76086Z" fill="#F3F3F3"/>
<path d="M8.7522 14.0835V13.8881H8.94757V13.6928H9.14294V13.8881H9.33831V14.0835H9.14294V14.2789H8.94757V14.0835H8.7522ZM8.7522 12.9112V12.7159H8.94757V12.5205H9.14294V12.7159H9.33831V12.9112H9.14294V13.1066H8.94757V12.9112H8.7522Z" fill="#F3F3F3"/>
<path d="M11.7203 13.8882H11.5249V13.6928H11.7203V13.8882ZM11.7203 12.5206V12.7159H11.5249V12.5206H11.7203ZM10.3527 13.8882V13.6928H10.5481V13.8882H10.3527ZM10.3527 12.7159V12.5206H10.5481V12.7159H10.3527ZM10.7435 13.4974V13.302H10.1573V13.1067H10.7435V12.9113H10.9388V12.3252H11.1342V12.9113H11.3296V13.1067H11.9157V13.302H11.3296V13.4974H11.1342V14.0836H10.9388V13.4974H10.7435ZM10.7435 13.6928H10.5481V13.4974H10.7435V13.6928ZM10.7435 12.9113H10.5481V12.7159H10.7435V12.9113ZM11.5249 13.4974V13.6928H11.3296V13.4974H11.5249ZM11.5249 12.9113H11.3296V12.7159H11.5249V12.9113Z" fill="#F3F3F3"/>
<path d="M13.7116 13.8882H13.5162V13.6928H13.7116V13.8882ZM13.7116 12.5206V12.7159H13.5162V12.5206H13.7116ZM12.3439 13.8882V13.6928H12.5393V13.8882H12.3439ZM12.3439 12.7159V12.5206H12.5393V12.7159H12.3439ZM12.7347 13.4974V13.302H12.1486V13.1067H12.7347V12.9113H12.9301V12.3252H13.1254V12.9113H13.3208V13.1067H13.9069V13.302H13.3208V13.4974H13.1254V14.0836H12.9301V13.4974H12.7347ZM12.7347 13.6928H12.5393V13.4974H12.7347V13.6928ZM12.7347 12.9113H12.5393V12.7159H12.7347V12.9113ZM13.5162 13.4974V13.6928H13.3208V13.4974H13.5162ZM13.5162 12.9113H13.3208V12.7159H13.5162V12.9113Z" fill="#F3F3F3"/>
<path d="M15.7029 13.8882H15.5075V13.6928H15.7029V13.8882ZM15.7029 12.5206V12.7159H15.5075V12.5206H15.7029ZM14.3353 13.8882V13.6928H14.5307V13.8882H14.3353ZM14.3353 12.7159V12.5206H14.5307V12.7159H14.3353ZM14.726 13.4974V13.302H14.1399V13.1067H14.726V12.9113H14.9214V12.3252H15.1168V12.9113H15.3121V13.1067H15.8983V13.302H15.3121V13.4974H15.1168V14.0836H14.9214V13.4974H14.726ZM14.726 13.6928H14.5307V13.4974H14.726V13.6928ZM14.726 12.9113H14.5307V12.7159H14.726V12.9113ZM15.5075 13.4974V13.6928H15.3121V13.4974H15.5075ZM15.5075 12.9113H15.3121V12.7159H15.5075V12.9113Z" fill="#F3F3F3"/>
<path d="M17.6942 13.8882H17.4988V13.6928H17.6942V13.8882ZM17.6942 12.5206V12.7159H17.4988V12.5206H17.6942ZM16.3266 13.8882V13.6928H16.522V13.8882H16.3266ZM16.3266 12.7159V12.5206H16.522V12.7159H16.3266ZM16.7174 13.4974V13.302H16.1312V13.1067H16.7174V12.9113H16.9127V12.3252H17.1081V12.9113H17.3035V13.1067H17.8896V13.302H17.3035V13.4974H17.1081V14.0836H16.9127V13.4974H16.7174ZM16.7174 13.6928H16.522V13.4974H16.7174V13.6928ZM16.7174 12.9113H16.522V12.7159H16.7174V12.9113ZM17.4988 13.4974V13.6928H17.3035V13.4974H17.4988ZM17.4988 12.9113H17.3035V12.7159H17.4988V12.9113Z" fill="#F3F3F3"/>
<path d="M19.6856 13.8882H19.4902V13.6928H19.6856V13.8882ZM19.6856 12.5206V12.7159H19.4902V12.5206H19.6856ZM18.3179 13.8882V13.6928H18.5133V13.8882H18.3179ZM18.3179 12.7159V12.5206H18.5133V12.7159H18.3179ZM18.7087 13.4974V13.302H18.1226V13.1067H18.7087V12.9113H18.9041V12.3252H19.0994V12.9113H19.2948V13.1067H19.8809V13.302H19.2948V13.4974H19.0994V14.0836H18.9041V13.4974H18.7087ZM18.7087 13.6928H18.5133V13.4974H18.7087V13.6928ZM18.7087 12.9113H18.5133V12.7159H18.7087V12.9113ZM19.4902 13.4974V13.6928H19.2948V13.4974H19.4902ZM19.4902 12.9113H19.2948V12.7159H19.4902V12.9113Z" fill="#F3F3F3"/>
<path d="M21.6768 13.8882H21.4814V13.6928H21.6768V13.8882ZM21.6768 12.5206V12.7159H21.4814V12.5206H21.6768ZM20.3091 13.8882V13.6928H20.5045V13.8882H20.3091ZM20.3091 12.7159V12.5206H20.5045V12.7159H20.3091ZM20.6999 13.4974V13.302H20.1138V13.1067H20.6999V12.9113H20.8953V12.3252H21.0907V12.9113H21.286V13.1067H21.8721V13.302H21.286V13.4974H21.0907V14.0836H20.8953V13.4974H20.6999ZM20.6999 13.6928H20.5045V13.4974H20.6999V13.6928ZM20.6999 12.9113H20.5045V12.7159H20.6999V12.9113ZM21.4814 13.4974V13.6928H21.286V13.4974H21.4814ZM21.4814 12.9113H21.286V12.7159H21.4814V12.9113Z" fill="#F3F3F3"/>
<path d="M23.668 13.8882H23.4726V13.6928H23.668V13.8882ZM23.668 12.5206V12.7159H23.4726V12.5206H23.668ZM22.3004 13.8882V13.6928H22.4957V13.8882H22.3004ZM22.3004 12.7159V12.5206H22.4957V12.7159H22.3004ZM22.6911 13.4974V13.302H22.105V13.1067H22.6911V12.9113H22.8865V12.3252H23.0819V12.9113H23.2772V13.1067H23.8633V13.302H23.2772V13.4974H23.0819V14.0836H22.8865V13.4974H22.6911ZM22.6911 13.6928H22.4957V13.4974H22.6911V13.6928ZM22.6911 12.9113H22.4957V12.7159H22.6911V12.9113ZM23.4726 13.4974V13.6928H23.2772V13.4974H23.4726ZM23.4726 12.9113H23.2772V12.7159H23.4726V12.9113Z" fill="#F3F3F3"/>
<path d="M25.6593 13.8882H25.4639V13.6928H25.6593V13.8882ZM25.6593 12.5206V12.7159H25.4639V12.5206H25.6593ZM24.2917 13.8882V13.6928H24.4871V13.8882H24.2917ZM24.2917 12.7159V12.5206H24.4871V12.7159H24.2917ZM24.6824 13.4974V13.302H24.0963V13.1067H24.6824V12.9113H24.8778V12.3252H25.0732V12.9113H25.2686V13.1067H25.8547V13.302H25.2686V13.4974H25.0732V14.0836H24.8778V13.4974H24.6824ZM24.6824 13.6928H24.4871V13.4974H24.6824V13.6928ZM24.6824 12.9113H24.4871V12.7159H24.6824V12.9113ZM25.4639 13.4974V13.6928H25.2686V13.4974H25.4639ZM25.4639 12.9113H25.2686V12.7159H25.4639V12.9113Z" fill="#F3F3F3"/>
<path d="M27.6506 13.8882H27.4553V13.6928H27.6506V13.8882ZM27.6506 12.5206V12.7159H27.4553V12.5206H27.6506ZM26.283 13.8882V13.6928H26.4784V13.8882H26.283ZM26.283 12.7159V12.5206H26.4784V12.7159H26.283ZM26.6738 13.4974V13.302H26.0876V13.1067H26.6738V12.9113H26.8691V12.3252H27.0645V12.9113H27.2599V13.1067H27.846V13.302H27.2599V13.4974H27.0645V14.0836H26.8691V13.4974H26.6738ZM26.6738 13.6928H26.4784V13.4974H26.6738V13.6928ZM26.6738 12.9113H26.4784V12.7159H26.6738V12.9113ZM27.4553 13.4974V13.6928H27.2599V13.4974H27.4553ZM27.4553 12.9113H27.2599V12.7159H27.4553V12.9113Z" fill="#F3F3F3"/>
<path d="M28.079 12.129V11.9336H28.8605V12.129H28.6651V14.0827H29.642V13.8873H29.8373V13.692H30.0327V14.0827H29.8373V14.2781H28.079V14.0827H28.2744V12.129H28.079Z" fill="#F3F3F3"/>
<path d="M30.0702 12.129V11.9336H30.8517V12.129H30.6563V14.0827H31.6332V13.8873H31.8286V13.692H32.0239V14.0827H31.8286V14.2781H30.0702V14.0827H30.2656V12.129H30.0702Z" fill="#F3F3F3"/>
<path d="M32.0615 12.129V11.9336H32.843V12.129H32.6477V14.0827H33.6245V13.8873H33.8199V13.692H34.0153V14.0827H33.8199V14.2781H32.0615V14.0827H32.2569V12.129H32.0615Z" fill="#F3F3F3"/>
<path d="M34.0527 12.129V11.9336H34.8342V12.129H34.6389V14.0827H35.6158V13.8873H35.8111V13.692H36.0064V14.0827H35.8111V14.2781H34.0527V14.0827H34.2481V12.129H34.0527Z" fill="#F3F3F3"/>
<path d="M0.787109 17.9907V17.7954H0.982483V17.6H1.17786V17.7954H1.37323V17.9907H1.17786V18.1861H0.982483V17.9907H0.787109ZM0.787109 16.8185V16.6231H0.982483V16.4277H1.17786V16.6231H1.37323V16.8185H1.17786V17.0138H0.982483V16.8185H0.787109Z" fill="#F3F3F3"/>
<path d="M3.75513 17.7954H3.55976V17.6H3.75513V17.7954ZM3.75513 16.4278V16.6232H3.55976V16.4278H3.75513ZM2.38751 17.7954V17.6H2.58289V17.7954H2.38751ZM2.38751 16.6232V16.4278H2.58289V16.6232H2.38751ZM2.77826 17.4047V17.2093H2.19214V17.0139H2.77826V16.8185H2.97363V16.2324H3.16901V16.8185H3.36438V17.0139H3.9505V17.2093H3.36438V17.4047H3.16901V17.9908H2.97363V17.4047H2.77826ZM2.77826 17.6H2.58289V17.4047H2.77826V17.6ZM2.77826 16.8185H2.58289V16.6232H2.77826V16.8185ZM3.55976 17.4047V17.6H3.36438V17.4047H3.55976ZM3.55976 16.8185H3.36438V16.6232H3.55976V16.8185Z" fill="#F3F3F3"/>
<path d="M5.74647 17.7954H5.5511V17.6H5.74647V17.7954ZM5.74647 16.4278V16.6232H5.5511V16.4278H5.74647ZM4.37884 17.7954V17.6H4.57421V17.7954H4.37884ZM4.37884 16.6232V16.4278H4.57421V16.6232H4.37884ZM4.76958 17.4047V17.2093H4.18347V17.0139H4.76958V16.8185H4.96495V16.2324H5.16032V16.8185H5.35573V17.0139H5.94184V17.2093H5.35573V17.4047H5.16032V17.9908H4.96495V17.4047H4.76958ZM4.76958 17.6H4.57421V17.4047H4.76958V17.6ZM4.76958 16.8185H4.57421V16.6232H4.76958V16.8185ZM5.5511 17.4047V17.6H5.35573V17.4047H5.5511ZM5.5511 16.8185H5.35573V16.6232H5.5511V16.8185Z" fill="#F3F3F3"/>
<path d="M7.7378 17.7954H7.54243V17.6H7.7378V17.7954ZM7.7378 16.4278V16.6232H7.54243V16.4278H7.7378ZM6.37017 17.7954V17.6H6.56554V17.7954H6.37017ZM6.37017 16.6232V16.4278H6.56554V16.6232H6.37017ZM6.76091 17.4047V17.2093H6.1748V17.0139H6.76091V16.8185H6.95628V16.2324H7.15165V16.8185H7.34702V17.0139H7.93317V17.2093H7.34702V17.4047H7.15165V17.9908H6.95628V17.4047H6.76091ZM6.76091 17.6H6.56554V17.4047H6.76091V17.6ZM6.76091 16.8185H6.56554V16.6232H6.76091V16.8185ZM7.54243 17.4047V17.6H7.34702V17.4047H7.54243ZM7.54243 16.8185H7.34702V16.6232H7.54243V16.8185Z" fill="#F3F3F3"/>
<path d="M9.72898 17.7954H9.53361V17.6H9.72898V17.7954ZM9.72898 16.4278V16.6232H9.53361V16.4278H9.72898ZM8.36139 17.7954V17.6H8.55676V17.7954H8.36139ZM8.36139 16.6232V16.4278H8.55676V16.6232H8.36139ZM8.75213 17.4047V17.2093H8.16602V17.0139H8.75213V16.8185H8.9475V16.2324H9.14287V16.8185H9.33824V17.0139H9.92438V17.2093H9.33824V17.4047H9.14287V17.9908H8.9475V17.4047H8.75213ZM8.75213 17.6H8.55676V17.4047H8.75213V17.6ZM8.75213 16.8185H8.55676V16.6232H8.75213V16.8185ZM9.53361 17.4047V17.6H9.33824V17.4047H9.53361ZM9.53361 16.8185H9.33824V16.6232H9.53361V16.8185Z" fill="#F3F3F3"/>
<path d="M11.7203 17.7954H11.5249V17.6H11.7203V17.7954ZM11.7203 16.4278V16.6232H11.5249V16.4278H11.7203ZM10.3527 17.7954V17.6H10.5481V17.7954H10.3527ZM10.3527 16.6232V16.4278H10.5481V16.6232H10.3527ZM10.7435 17.4047V17.2093H10.1573V17.0139H10.7435V16.8185H10.9388V16.2324H11.1342V16.8185H11.3296V17.0139H11.9157V17.2093H11.3296V17.4047H11.1342V17.9908H10.9388V17.4047H10.7435ZM10.7435 17.6H10.5481V17.4047H10.7435V17.6ZM10.7435 16.8185H10.5481V16.6232H10.7435V16.8185ZM11.5249 17.4047V17.6H11.3296V17.4047H11.5249ZM11.5249 16.8185H11.3296V16.6232H11.5249V16.8185Z" fill="#F3F3F3"/>
<path d="M13.7116 17.7954H13.5162V17.6H13.7116V17.7954ZM13.7116 16.4278V16.6232H13.5162V16.4278H13.7116ZM12.3439 17.7954V17.6H12.5393V17.7954H12.3439ZM12.3439 16.6232V16.4278H12.5393V16.6232H12.3439ZM12.7347 17.4047V17.2093H12.1486V17.0139H12.7347V16.8185H12.9301V16.2324H13.1254V16.8185H13.3208V17.0139H13.9069V17.2093H13.3208V17.4047H13.1254V17.9908H12.9301V17.4047H12.7347ZM12.7347 17.6H12.5393V17.4047H12.7347V17.6ZM12.7347 16.8185H12.5393V16.6232H12.7347V16.8185ZM13.5162 17.4047V17.6H13.3208V17.4047H13.5162ZM13.5162 16.8185H13.3208V16.6232H13.5162V16.8185Z" fill="#F3F3F3"/>
<path d="M15.7029 17.7954H15.5075V17.6H15.7029V17.7954ZM15.7029 16.4278V16.6232H15.5075V16.4278H15.7029ZM14.3353 17.7954V17.6H14.5307V17.7954H14.3353ZM14.3353 16.6232V16.4278H14.5307V16.6232H14.3353ZM14.726 17.4047V17.2093H14.1399V17.0139H14.726V16.8185H14.9214V16.2324H15.1168V16.8185H15.3121V17.0139H15.8983V17.2093H15.3121V17.4047H15.1168V17.9908H14.9214V17.4047H14.726ZM14.726 17.6H14.5307V17.4047H14.726V17.6ZM14.726 16.8185H14.5307V16.6232H14.726V16.8185ZM15.5075 17.4047V17.6H15.3121V17.4047H15.5075ZM15.5075 16.8185H15.3121V16.6232H15.5075V16.8185Z" fill="#F3F3F3"/>
<path d="M17.6942 17.7954H17.4988V17.6H17.6942V17.7954ZM17.6942 16.4278V16.6232H17.4988V16.4278H17.6942ZM16.3266 17.7954V17.6H16.522V17.7954H16.3266ZM16.3266 16.6232V16.4278H16.522V16.6232H16.3266ZM16.7174 17.4047V17.2093H16.1312V17.0139H16.7174V16.8185H16.9127V16.2324H17.1081V16.8185H17.3035V17.0139H17.8896V17.2093H17.3035V17.4047H17.1081V17.9908H16.9127V17.4047H16.7174ZM16.7174 17.6H16.522V17.4047H16.7174V17.6ZM16.7174 16.8185H16.522V16.6232H16.7174V16.8185ZM17.4988 17.4047V17.6H17.3035V17.4047H17.4988ZM17.4988 16.8185H17.3035V16.6232H17.4988V16.8185Z" fill="#F3F3F3"/>
<path d="M19.6856 17.7954H19.4902V17.6H19.6856V17.7954ZM19.6856 16.4278V16.6232H19.4902V16.4278H19.6856ZM18.3179 17.7954V17.6H18.5133V17.7954H18.3179ZM18.3179 16.6232V16.4278H18.5133V16.6232H18.3179ZM18.7087 17.4047V17.2093H18.1226V17.0139H18.7087V16.8185H18.9041V16.2324H19.0994V16.8185H19.2948V17.0139H19.8809V17.2093H19.2948V17.4047H19.0994V17.9908H18.9041V17.4047H18.7087ZM18.7087 17.6H18.5133V17.4047H18.7087V17.6ZM18.7087 16.8185H18.5133V16.6232H18.7087V16.8185ZM19.4902 17.4047V17.6H19.2948V17.4047H19.4902ZM19.4902 16.8185H19.2948V16.6232H19.4902V16.8185Z" fill="#F3F3F3"/>
<path d="M21.6768 17.7954H21.4814V17.6H21.6768V17.7954ZM21.6768 16.4278V16.6232H21.4814V16.4278H21.6768ZM20.3091 17.7954V17.6H20.5045V17.7954H20.3091ZM20.3091 16.6232V16.4278H20.5045V16.6232H20.3091ZM20.6999 17.4047V17.2093H20.1138V17.0139H20.6999V16.8185H20.8953V16.2324H21.0907V16.8185H21.286V17.0139H21.8721V17.2093H21.286V17.4047H21.0907V17.9908H20.8953V17.4047H20.6999ZM20.6999 17.6H20.5045V17.4047H20.6999V17.6ZM20.6999 16.8185H20.5045V16.6232H20.6999V16.8185ZM21.4814 17.4047V17.6H21.286V17.4047H21.4814ZM21.4814 16.8185H21.286V16.6232H21.4814V16.8185Z" fill="#F3F3F3"/>
<path d="M23.668 17.7954H23.4726V17.6H23.668V17.7954ZM23.668 16.4278V16.6232H23.4726V16.4278H23.668ZM22.3004 17.7954V17.6H22.4957V17.7954H22.3004ZM22.3004 16.6232V16.4278H22.4957V16.6232H22.3004ZM22.6911 17.4047V17.2093H22.105V17.0139H22.6911V16.8185H22.8865V16.2324H23.0819V16.8185H23.2772V17.0139H23.8633V17.2093H23.2772V17.4047H23.0819V17.9908H22.8865V17.4047H22.6911ZM22.6911 17.6H22.4957V17.4047H22.6911V17.6ZM22.6911 16.8185H22.4957V16.6232H22.6911V16.8185ZM23.4726 17.4047V17.6H23.2772V17.4047H23.4726ZM23.4726 16.8185H23.2772V16.6232H23.4726V16.8185Z" fill="#F3F3F3"/>
<path d="M24.0963 16.0372V15.8418H24.8778V16.0372H24.6824V17.9909H25.6593V17.7955H25.8547V17.6002H26.05V17.9909H25.8547V18.1863H24.0963V17.9909H24.2917V16.0372H24.0963Z" fill="#F3F3F3"/>
<path d="M26.0876 16.0372V15.8418H26.8691V16.0372H26.6738V17.9909H27.6506V17.7955H27.846V17.6002H28.0414V17.9909H27.846V18.1863H26.0876V17.9909H26.283V16.0372H26.0876Z" fill="#F3F3F3"/>
<path d="M28.079 16.0372V15.8418H28.8605V16.0372H28.6651V17.9909H29.642V17.7955H29.8373V17.6002H30.0327V17.9909H29.8373V18.1863H28.079V17.9909H28.2744V16.0372H28.079Z" fill="#F3F3F3"/>
<path d="M30.0702 16.0372V15.8418H30.8517V16.0372H30.6563V17.9909H31.6332V17.7955H31.8286V17.6002H32.0239V17.9909H31.8286V18.1863H30.0702V17.9909H30.2656V16.0372H30.0702Z" fill="#F3F3F3"/>
<path d="M32.0615 16.0372V15.8418H32.843V16.0372H32.6477V17.9909H33.6245V17.7955H33.8199V17.6002H34.0153V17.9909H33.8199V18.1863H32.0615V17.9909H32.2569V16.0372H32.0615Z" fill="#F3F3F3"/>
<path d="M34.0527 16.0372V15.8418H34.8342V16.0372H34.6389V17.9909H35.6158V17.7955H35.8111V17.6002H36.0064V17.9909H35.8111V18.1863H34.0527V17.9909H34.2481V16.0372H34.0527Z" fill="#F3F3F3"/>
<path d="M1.76392 21.7026H1.56854V21.5073H1.76392V21.7026ZM1.76392 20.335V20.5304H1.56854V20.335H1.76392ZM0.396301 21.7026V21.5073H0.591675V21.7026H0.396301ZM0.396301 20.5304V20.335H0.591675V20.5304H0.396301ZM0.787048 21.3119V21.1165H0.200928V20.9212H0.787048V20.7258H0.982422V20.1396H1.1778V20.7258H1.37317V20.9212H1.95929V21.1165H1.37317V21.3119H1.1778V21.898H0.982422V21.3119H0.787048ZM0.787048 21.5073H0.591675V21.3119H0.787048V21.5073ZM0.787048 20.7258H0.591675V20.5304H0.787048V20.7258ZM1.56854 21.3119V21.5073H1.37317V21.3119H1.56854ZM1.56854 20.7258H1.37317V20.5304H1.56854V20.7258Z" fill="#F3F3F3"/>
<path d="M3.75513 21.7026H3.55976V21.5073H3.75513V21.7026ZM3.75513 20.335V20.5304H3.55976V20.335H3.75513ZM2.38751 21.7026V21.5073H2.58289V21.7026H2.38751ZM2.38751 20.5304V20.335H2.58289V20.5304H2.38751ZM2.77826 21.3119V21.1165H2.19214V20.9212H2.77826V20.7258H2.97363V20.1396H3.16901V20.7258H3.36438V20.9212H3.9505V21.1165H3.36438V21.3119H3.16901V21.898H2.97363V21.3119H2.77826ZM2.77826 21.5073H2.58289V21.3119H2.77826V21.5073ZM2.77826 20.7258H2.58289V20.5304H2.77826V20.7258ZM3.55976 21.3119V21.5073H3.36438V21.3119H3.55976ZM3.55976 20.7258H3.36438V20.5304H3.55976V20.7258Z" fill="#F3F3F3"/>
<path d="M5.74647 21.7026H5.5511V21.5073H5.74647V21.7026ZM5.74647 20.335V20.5304H5.5511V20.335H5.74647ZM4.37884 21.7026V21.5073H4.57421V21.7026H4.37884ZM4.37884 20.5304V20.335H4.57421V20.5304H4.37884ZM4.76958 21.3119V21.1165H4.18347V20.9212H4.76958V20.7258H4.96495V20.1396H5.16032V20.7258H5.35573V20.9212H5.94184V21.1165H5.35573V21.3119H5.16032V21.898H4.96495V21.3119H4.76958ZM4.76958 21.5073H4.57421V21.3119H4.76958V21.5073ZM4.76958 20.7258H4.57421V20.5304H4.76958V20.7258ZM5.5511 21.3119V21.5073H5.35573V21.3119H5.5511ZM5.5511 20.7258H5.35573V20.5304H5.5511V20.7258Z" fill="#F3F3F3"/>
<path d="M7.7378 21.7026H7.54243V21.5073H7.7378V21.7026ZM7.7378 20.335V20.5304H7.54243V20.335H7.7378ZM6.37017 21.7026V21.5073H6.56554V21.7026H6.37017ZM6.37017 20.5304V20.335H6.56554V20.5304H6.37017ZM6.76091 21.3119V21.1165H6.1748V20.9212H6.76091V20.7258H6.95628V20.1396H7.15165V20.7258H7.34702V20.9212H7.93317V21.1165H7.34702V21.3119H7.15165V21.898H6.95628V21.3119H6.76091ZM6.76091 21.5073H6.56554V21.3119H6.76091V21.5073ZM6.76091 20.7258H6.56554V20.5304H6.76091V20.7258ZM7.54243 21.3119V21.5073H7.34702V21.3119H7.54243ZM7.54243 20.7258H7.34702V20.5304H7.54243V20.7258Z" fill="#F3F3F3"/>
<path d="M9.72898 21.7026H9.53361V21.5073H9.72898V21.7026ZM9.72898 20.335V20.5304H9.53361V20.335H9.72898ZM8.36139 21.7026V21.5073H8.55676V21.7026H8.36139ZM8.36139 20.5304V20.335H8.55676V20.5304H8.36139ZM8.75213 21.3119V21.1165H8.16602V20.9212H8.75213V20.7258H8.9475V20.1396H9.14287V20.7258H9.33824V20.9212H9.92438V21.1165H9.33824V21.3119H9.14287V21.898H8.9475V21.3119H8.75213ZM8.75213 21.5073H8.55676V21.3119H8.75213V21.5073ZM8.75213 20.7258H8.55676V20.5304H8.75213V20.7258ZM9.53361 21.3119V21.5073H9.33824V21.3119H9.53361ZM9.53361 20.7258H9.33824V20.5304H9.53361V20.7258Z" fill="#F3F3F3"/>
<path d="M11.7203 21.7026H11.5249V21.5073H11.7203V21.7026ZM11.7203 20.335V20.5304H11.5249V20.335H11.7203ZM10.3527 21.7026V21.5073H10.5481V21.7026H10.3527ZM10.3527 20.5304V20.335H10.5481V20.5304H10.3527ZM10.7435 21.3119V21.1165H10.1573V20.9212H10.7435V20.7258H10.9388V20.1396H11.1342V20.7258H11.3296V20.9212H11.9157V21.1165H11.3296V21.3119H11.1342V21.898H10.9388V21.3119H10.7435ZM10.7435 21.5073H10.5481V21.3119H10.7435V21.5073ZM10.7435 20.7258H10.5481V20.5304H10.7435V20.7258ZM11.5249 21.3119V21.5073H11.3296V21.3119H11.5249ZM11.5249 20.7258H11.3296V20.5304H11.5249V20.7258Z" fill="#F3F3F3"/>
<path d="M13.7116 21.7026H13.5162V21.5073H13.7116V21.7026ZM13.7116 20.335V20.5304H13.5162V20.335H13.7116ZM12.3439 21.7026V21.5073H12.5393V21.7026H12.3439ZM12.3439 20.5304V20.335H12.5393V20.5304H12.3439ZM12.7347 21.3119V21.1165H12.1486V20.9212H12.7347V20.7258H12.9301V20.1396H13.1254V20.7258H13.3208V20.9212H13.9069V21.1165H13.3208V21.3119H13.1254V21.898H12.9301V21.3119H12.7347ZM12.7347 21.5073H12.5393V21.3119H12.7347V21.5073ZM12.7347 20.7258H12.5393V20.5304H12.7347V20.7258ZM13.5162 21.3119V21.5073H13.3208V21.3119H13.5162ZM13.5162 20.7258H13.3208V20.5304H13.5162V20.7258Z" fill="#F3F3F3"/>
<path d="M15.7029 21.7026H15.5075V21.5073H15.7029V21.7026ZM15.7029 20.335V20.5304H15.5075V20.335H15.7029ZM14.3353 21.7026V21.5073H14.5307V21.7026H14.3353ZM14.3353 20.5304V20.335H14.5307V20.5304H14.3353ZM14.726 21.3119V21.1165H14.1399V20.9212H14.726V20.7258H14.9214V20.1396H15.1168V20.7258H15.3121V20.9212H15.8983V21.1165H15.3121V21.3119H15.1168V21.898H14.9214V21.3119H14.726ZM14.726 21.5073H14.5307V21.3119H14.726V21.5073ZM14.726 20.7258H14.5307V20.5304H14.726V20.7258ZM15.5075 21.3119V21.5073H15.3121V21.3119H15.5075ZM15.5075 20.7258H15.3121V20.5304H15.5075V20.7258Z" fill="#F3F3F3"/>
<path d="M17.6942 21.7026H17.4988V21.5073H17.6942V21.7026ZM17.6942 20.335V20.5304H17.4988V20.335H17.6942ZM16.3266 21.7026V21.5073H16.522V21.7026H16.3266ZM16.3266 20.5304V20.335H16.522V20.5304H16.3266ZM16.7174 21.3119V21.1165H16.1312V20.9212H16.7174V20.7258H16.9127V20.1396H17.1081V20.7258H17.3035V20.9212H17.8896V21.1165H17.3035V21.3119H17.1081V21.898H16.9127V21.3119H16.7174ZM16.7174 21.5073H16.522V21.3119H16.7174V21.5073ZM16.7174 20.7258H16.522V20.5304H16.7174V20.7258ZM17.4988 21.3119V21.5073H17.3035V21.3119H17.4988ZM17.4988 20.7258H17.3035V20.5304H17.4988V20.7258Z" fill="#F3F3F3"/>
<path d="M19.6856 21.7026H19.4902V21.5073H19.6856V21.7026ZM19.6856 20.335V20.5304H19.4902V20.335H19.6856ZM18.3179 21.7026V21.5073H18.5133V21.7026H18.3179ZM18.3179 20.5304V20.335H18.5133V20.5304H18.3179ZM18.7087 21.3119V21.1165H18.1226V20.9212H18.7087V20.7258H18.9041V20.1396H19.0994V20.7258H19.2948V20.9212H19.8809V21.1165H19.2948V21.3119H19.0994V21.898H18.9041V21.3119H18.7087ZM18.7087 21.5073H18.5133V21.3119H18.7087V21.5073ZM18.7087 20.7258H18.5133V20.5304H18.7087V20.7258ZM19.4902 21.3119V21.5073H19.2948V21.3119H19.4902ZM19.4902 20.7258H19.2948V20.5304H19.4902V20.7258Z" fill="#F3F3F3"/>
<path d="M20.1138 19.9444V19.749H20.8953V19.9444H20.6999V21.8981H21.6768V21.7028H21.8721V21.5074H22.0675V21.8981H21.8721V22.0935H20.1138V21.8981H20.3091V19.9444H20.1138Z" fill="#F3F3F3"/>
<path d="M22.105 19.9444V19.749H22.8865V19.9444H22.6911V21.8981H23.668V21.7028H23.8633V21.5074H24.0587V21.8981H23.8633V22.0935H22.105V21.8981H22.3004V19.9444H22.105Z" fill="#F3F3F3"/>
<path d="M24.0963 19.9444V19.749H24.8778V19.9444H24.6824V21.8981H25.6593V21.7028H25.8547V21.5074H26.05V21.8981H25.8547V22.0935H24.0963V21.8981H24.2917V19.9444H24.0963Z" fill="#F3F3F3"/>
<path d="M26.0876 19.9444V19.749H26.8691V19.9444H26.6738V21.8981H27.6506V21.7028H27.846V21.5074H28.0414V21.8981H27.846V22.0935H26.0876V21.8981H26.283V19.9444H26.0876Z" fill="#F3F3F3"/>
<path d="M28.079 19.9444V19.749H28.8605V19.9444H28.6651V21.8981H29.642V21.7028H29.8373V21.5074H30.0327V21.8981H29.8373V22.0935H28.079V21.8981H28.2744V19.9444H28.079Z" fill="#F3F3F3"/>
<path d="M30.0702 19.9444V19.749H30.8517V19.9444H30.6563V21.8981H31.6332V21.7028H31.8286V21.5074H32.0239V21.8981H31.8286V22.0935H30.0702V21.8981H30.2656V19.9444H30.0702Z" fill="#F3F3F3"/>
<path d="M32.0615 19.9444V19.749H32.843V19.9444H32.6477V21.8981H33.6245V21.7028H33.8199V21.5074H34.0153V21.8981H33.8199V22.0935H32.0615V21.8981H32.2569V19.9444H32.0615Z" fill="#F3F3F3"/>
<path d="M34.0527 19.9444V19.749H34.8342V19.9444H34.6389V21.8981H35.6158V21.7028H35.8111V21.5074H36.0064V21.8981H35.8111V22.0935H34.0527V21.8981H34.2481V19.9444H34.0527Z" fill="#F3F3F3"/>
<path d="M1.76392 25.6108H1.56854V25.4155H1.76392V25.6108ZM1.76392 24.2432V24.4386H1.56854V24.2432H1.76392ZM0.396301 25.6108V25.4155H0.591675V25.6108H0.396301ZM0.396301 24.4386V24.2432H0.591675V24.4386H0.396301ZM0.787048 25.2201V25.0247H0.200928V24.8294H0.787048V24.634H0.982422V24.0479H1.1778V24.634H1.37317V24.8294H1.95929V25.0247H1.37317V25.2201H1.1778V25.8062H0.982422V25.2201H0.787048ZM0.787048 25.4155H0.591675V25.2201H0.787048V25.4155ZM0.787048 24.634H0.591675V24.4386H0.787048V24.634ZM1.56854 25.2201V25.4155H1.37317V25.2201H1.56854ZM1.56854 24.634H1.37317V24.4386H1.56854V24.634Z" fill="#F3F3F3"/>
<path d="M3.75513 25.6108H3.55976V25.4155H3.75513V25.6108ZM3.75513 24.2432V24.4386H3.55976V24.2432H3.75513ZM2.38751 25.6108V25.4155H2.58289V25.6108H2.38751ZM2.38751 24.4386V24.2432H2.58289V24.4386H2.38751ZM2.77826 25.2201V25.0247H2.19214V24.8294H2.77826V24.634H2.97363V24.0479H3.16901V24.634H3.36438V24.8294H3.9505V25.0247H3.36438V25.2201H3.16901V25.8062H2.97363V25.2201H2.77826ZM2.77826 25.4155H2.58289V25.2201H2.77826V25.4155ZM2.77826 24.634H2.58289V24.4386H2.77826V24.634ZM3.55976 25.2201V25.4155H3.36438V25.2201H3.55976ZM3.55976 24.634H3.36438V24.4386H3.55976V24.634Z" fill="#F3F3F3"/>
<path d="M5.74647 25.6108H5.5511V25.4155H5.74647V25.6108ZM5.74647 24.2432V24.4386H5.5511V24.2432H5.74647ZM4.37884 25.6108V25.4155H4.57421V25.6108H4.37884ZM4.37884 24.4386V24.2432H4.57421V24.4386H4.37884ZM4.76958 25.2201V25.0247H4.18347V24.8294H4.76958V24.634H4.96495V24.0479H5.16032V24.634H5.35573V24.8294H5.94184V25.0247H5.35573V25.2201H5.16032V25.8062H4.96495V25.2201H4.76958ZM4.76958 25.4155H4.57421V25.2201H4.76958V25.4155ZM4.76958 24.634H4.57421V24.4386H4.76958V24.634ZM5.5511 25.2201V25.4155H5.35573V25.2201H5.5511ZM5.5511 24.634H5.35573V24.4386H5.5511V24.634Z" fill="#F3F3F3"/>
<path d="M7.7378 25.6108H7.54243V25.4155H7.7378V25.6108ZM7.7378 24.2432V24.4386H7.54243V24.2432H7.7378ZM6.37017 25.6108V25.4155H6.56554V25.6108H6.37017ZM6.37017 24.4386V24.2432H6.56554V24.4386H6.37017ZM6.76091 25.2201V25.0247H6.1748V24.8294H6.76091V24.634H6.95628V24.0479H7.15165V24.634H7.34702V24.8294H7.93317V25.0247H7.34702V25.2201H7.15165V25.8062H6.95628V25.2201H6.76091ZM6.76091 25.4155H6.56554V25.2201H6.76091V25.4155ZM6.76091 24.634H6.56554V24.4386H6.76091V24.634ZM7.54243 25.2201V25.4155H7.34702V25.2201H7.54243ZM7.54243 24.634H7.34702V24.4386H7.54243V24.634Z" fill="#F3F3F3"/>
<path d="M9.72898 25.6108H9.53361V25.4155H9.72898V25.6108ZM9.72898 24.2432V24.4386H9.53361V24.2432H9.72898ZM8.36139 25.6108V25.4155H8.55676V25.6108H8.36139ZM8.36139 24.4386V24.2432H8.55676V24.4386H8.36139ZM8.75213 25.2201V25.0247H8.16602V24.8294H8.75213V24.634H8.9475V24.0479H9.14287V24.634H9.33824V24.8294H9.92438V25.0247H9.33824V25.2201H9.14287V25.8062H8.9475V25.2201H8.75213ZM8.75213 25.4155H8.55676V25.2201H8.75213V25.4155ZM8.75213 24.634H8.55676V24.4386H8.75213V24.634ZM9.53361 25.2201V25.4155H9.33824V25.2201H9.53361ZM9.53361 24.634H9.33824V24.4386H9.53361V24.634Z" fill="#F3F3F3"/>
<path d="M11.7203 25.6108H11.5249V25.4155H11.7203V25.6108ZM11.7203 24.2432V24.4386H11.5249V24.2432H11.7203ZM10.3527 25.6108V25.4155H10.5481V25.6108H10.3527ZM10.3527 24.4386V24.2432H10.5481V24.4386H10.3527ZM10.7435 25.2201V25.0247H10.1573V24.8294H10.7435V24.634H10.9388V24.0479H11.1342V24.634H11.3296V24.8294H11.9157V25.0247H11.3296V25.2201H11.1342V25.8062H10.9388V25.2201H10.7435ZM10.7435 25.4155H10.5481V25.2201H10.7435V25.4155ZM10.7435 24.634H10.5481V24.4386H10.7435V24.634ZM11.5249 25.2201V25.4155H11.3296V25.2201H11.5249ZM11.5249 24.634H11.3296V24.4386H11.5249V24.634Z" fill="#F3F3F3"/>
<path d="M13.7116 25.6108H13.5162V25.4155H13.7116V25.6108ZM13.7116 24.2432V24.4386H13.5162V24.2432H13.7116ZM12.3439 25.6108V25.4155H12.5393V25.6108H12.3439ZM12.3439 24.4386V24.2432H12.5393V24.4386H12.3439ZM12.7347 25.2201V25.0247H12.1486V24.8294H12.7347V24.634H12.9301V24.0479H13.1254V24.634H13.3208V24.8294H13.9069V25.0247H13.3208V25.2201H13.1254V25.8062H12.9301V25.2201H12.7347ZM12.7347 25.4155H12.5393V25.2201H12.7347V25.4155ZM12.7347 24.634H12.5393V24.4386H12.7347V24.634ZM13.5162 25.2201V25.4155H13.3208V25.2201H13.5162ZM13.5162 24.634H13.3208V24.4386H13.5162V24.634Z" fill="#F3F3F3"/>
<path d="M15.7029 25.6108H15.5075V25.4155H15.7029V25.6108ZM15.7029 24.2432V24.4386H15.5075V24.2432H15.7029ZM14.3353 25.6108V25.4155H14.5307V25.6108H14.3353ZM14.3353 24.4386V24.2432H14.5307V24.4386H14.3353ZM14.726 25.2201V25.0247H14.1399V24.8294H14.726V24.634H14.9214V24.0479H15.1168V24.634H15.3121V24.8294H15.8983V25.0247H15.3121V25.2201H15.1168V25.8062H14.9214V25.2201H14.726ZM14.726 25.4155H14.5307V25.2201H14.726V25.4155ZM14.726 24.634H14.5307V24.4386H14.726V24.634ZM15.5075 25.2201V25.4155H15.3121V25.2201H15.5075ZM15.5075 24.634H15.3121V24.4386H15.5075V24.634Z" fill="#F3F3F3"/>
<path d="M16.1312 23.8526V23.6572H16.9127V23.8526H16.7174V25.8063H17.6942V25.611H17.8896V25.4156H18.085V25.8063H17.8896V26.0017H16.1312V25.8063H16.3266V23.8526H16.1312Z" fill="#F3F3F3"/>
<path d="M18.1226 23.8526V23.6572H18.9041V23.8526H18.7087V25.8063H19.6856V25.611H19.8809V25.4156H20.0763V25.8063H19.8809V26.0017H18.1226V25.8063H18.3179V23.8526H18.1226Z" fill="#F3F3F3"/>
<path d="M20.1138 23.8526V23.6572H20.8953V23.8526H20.6999V25.8063H21.6768V25.611H21.8721V25.4156H22.0675V25.8063H21.8721V26.0017H20.1138V25.8063H20.3091V23.8526H20.1138Z" fill="#F3F3F3"/>
<path d="M22.105 23.8526V23.6572H22.8865V23.8526H22.6911V25.8063H23.668V25.611H23.8633V25.4156H24.0587V25.8063H23.8633V26.0017H22.105V25.8063H22.3004V23.8526H22.105Z" fill="#F3F3F3"/>
<path d="M24.0963 23.8526V23.6572H24.8778V23.8526H24.6824V25.8063H25.6593V25.611H25.8547V25.4156H26.05V25.8063H25.8547V26.0017H24.0963V25.8063H24.2917V23.8526H24.0963Z" fill="#F3F3F3"/>
<path d="M26.0876 23.8526V23.6572H26.8691V23.8526H26.6738V25.8063H27.6506V25.611H27.846V25.4156H28.0414V25.8063H27.846V26.0017H26.0876V25.8063H26.283V23.8526H26.0876Z" fill="#F3F3F3"/>
<path d="M28.079 23.8526V23.6572H28.8605V23.8526H28.6651V25.8063H29.642V25.611H29.8373V25.4156H30.0327V25.8063H29.8373V26.0017H28.079V25.8063H28.2744V23.8526H28.079Z" fill="#F3F3F3"/>
<path d="M30.0702 23.8526V23.6572H30.8517V23.8526H30.6563V25.8063H31.6332V25.611H31.8286V25.4156H32.0239V25.8063H31.8286V26.0017H30.0702V25.8063H30.2656V23.8526H30.0702Z" fill="#F3F3F3"/>
<path d="M32.0615 23.8526V23.6572H32.843V23.8526H32.6477V25.8063H33.6245V25.611H33.8199V25.4156H34.0153V25.8063H33.8199V26.0017H32.0615V25.8063H32.2569V23.8526H32.0615Z" fill="#F3F3F3"/>
<path d="M34.0527 23.8526V23.6572H34.8342V23.8526H34.6389V25.8063H35.6158V25.611H35.8111V25.4156H36.0064V25.8063H35.8111V26.0017H34.0527V25.8063H34.2481V23.8526H34.0527Z" fill="#F3F3F3"/>
<path d="M3.75513 29.518H3.55976V29.3227H3.75513V29.518ZM3.75513 28.1504V28.3458H3.55976V28.1504H3.75513ZM2.38751 29.518V29.3227H2.58289V29.518H2.38751ZM2.38751 28.3458V28.1504H2.58289V28.3458H2.38751ZM2.77826 29.1273V28.9319H2.19214V28.7366H2.77826V28.5412H2.97363V27.9551H3.16901V28.5412H3.36438V28.7366H3.9505V28.9319H3.36438V29.1273H3.16901V29.7134H2.97363V29.1273H2.77826ZM2.77826 29.3227H2.58289V29.1273H2.77826V29.3227ZM2.77826 28.5412H2.58289V28.3458H2.77826V28.5412ZM3.55976 29.1273V29.3227H3.36438V29.1273H3.55976ZM3.55976 28.5412H3.36438V28.3458H3.55976V28.5412Z" fill="#F3F3F3"/>
<path d="M5.74647 29.518H5.5511V29.3227H5.74647V29.518ZM5.74647 28.1504V28.3458H5.5511V28.1504H5.74647ZM4.37884 29.518V29.3227H4.57421V29.518H4.37884ZM4.37884 28.3458V28.1504H4.57421V28.3458H4.37884ZM4.76958 29.1273V28.9319H4.18347V28.7366H4.76958V28.5412H4.96495V27.9551H5.16032V28.5412H5.35573V28.7366H5.94184V28.9319H5.35573V29.1273H5.16032V29.7134H4.96495V29.1273H4.76958ZM4.76958 29.3227H4.57421V29.1273H4.76958V29.3227ZM4.76958 28.5412H4.57421V28.3458H4.76958V28.5412ZM5.5511 29.1273V29.3227H5.35573V29.1273H5.5511ZM5.5511 28.5412H5.35573V28.3458H5.5511V28.5412Z" fill="#F3F3F3"/>
<path d="M7.7378 29.518H7.54243V29.3227H7.7378V29.518ZM7.7378 28.1504V28.3458H7.54243V28.1504H7.7378ZM6.37017 29.518V29.3227H6.56554V29.518H6.37017ZM6.37017 28.3458V28.1504H6.56554V28.3458H6.37017ZM6.76091 29.1273V28.9319H6.1748V28.7366H6.76091V28.5412H6.95628V27.9551H7.15165V28.5412H7.34702V28.7366H7.93317V28.9319H7.34702V29.1273H7.15165V29.7134H6.95628V29.1273H6.76091ZM6.76091 29.3227H6.56554V29.1273H6.76091V29.3227ZM6.76091 28.5412H6.56554V28.3458H6.76091V28.5412ZM7.54243 29.1273V29.3227H7.34702V29.1273H7.54243ZM7.54243 28.5412H7.34702V28.3458H7.54243V28.5412Z" fill="#F3F3F3"/>
<path d="M9.72898 29.518H9.53361V29.3227H9.72898V29.518ZM9.72898 28.1504V28.3458H9.53361V28.1504H9.72898ZM8.36139 29.518V29.3227H8.55676V29.518H8.36139ZM8.36139 28.3458V28.1504H8.55676V28.3458H8.36139ZM8.75213 29.1273V28.9319H8.16602V28.7366H8.75213V28.5412H8.9475V27.9551H9.14287V28.5412H9.33824V28.7366H9.92438V28.9319H9.33824V29.1273H9.14287V29.7134H8.9475V29.1273H8.75213ZM8.75213 29.3227H8.55676V29.1273H8.75213V29.3227ZM8.75213 28.5412H8.55676V28.3458H8.75213V28.5412ZM9.53361 29.1273V29.3227H9.33824V29.1273H9.53361ZM9.53361 28.5412H9.33824V28.3458H9.53361V28.5412Z" fill="#F3F3F3"/>
<path d="M11.7203 29.518H11.5249V29.3227H11.7203V29.518ZM11.7203 28.1504V28.3458H11.5249V28.1504H11.7203ZM10.3527 29.518V29.3227H10.5481V29.518H10.3527ZM10.3527 28.3458V28.1504H10.5481V28.3458H10.3527ZM10.7435 29.1273V28.9319H10.1573V28.7366H10.7435V28.5412H10.9388V27.9551H11.1342V28.5412H11.3296V28.7366H11.9157V28.9319H11.3296V29.1273H11.1342V29.7134H10.9388V29.1273H10.7435ZM10.7435 29.3227H10.5481V29.1273H10.7435V29.3227ZM10.7435 28.5412H10.5481V28.3458H10.7435V28.5412ZM11.5249 29.1273V29.3227H11.3296V29.1273H11.5249ZM11.5249 28.5412H11.3296V28.3458H11.5249V28.5412Z" fill="#F3F3F3"/>
<path d="M12.1486 27.7598V27.5645H12.9301V27.7598H12.7347V29.7136H13.7116V29.5182H13.9069V29.3228H14.1023V29.7136H13.9069V29.909H12.1486V29.7136H12.3439V27.7598H12.1486Z" fill="#F3F3F3"/>
<path d="M14.1399 27.7598V27.5645H14.9214V27.7598H14.726V29.7136H15.7029V29.5182H15.8983V29.3228H16.0937V29.7136H15.8983V29.909H14.1399V29.7136H14.3353V27.7598H14.1399Z" fill="#F3F3F3"/>
<path d="M16.1312 27.7598V27.5645H16.9127V27.7598H16.7174V29.7136H17.6942V29.5182H17.8896V29.3228H18.085V29.7136H17.8896V29.909H16.1312V29.7136H16.3266V27.7598H16.1312Z" fill="#F3F3F3"/>
<path d="M18.1226 27.7598V27.5645H18.9041V27.7598H18.7087V29.7136H19.6856V29.5182H19.8809V29.3228H20.0763V29.7136H19.8809V29.909H18.1226V29.7136H18.3179V27.7598H18.1226Z" fill="#F3F3F3"/>
<path d="M20.1138 27.7598V27.5645H20.8953V27.7598H20.6999V29.7136H21.6768V29.5182H21.8721V29.3228H22.0675V29.7136H21.8721V29.909H20.1138V29.7136H20.3091V27.7598H20.1138Z" fill="#F3F3F3"/>
<path d="M22.105 27.7598V27.5645H22.8865V27.7598H22.6911V29.7136H23.668V29.5182H23.8633V29.3228H24.0587V29.7136H23.8633V29.909H22.105V29.7136H22.3004V27.7598H22.105Z" fill="#F3F3F3"/>
<path d="M24.0963 27.7598V27.5645H24.8778V27.7598H24.6824V29.7136H25.6593V29.5182H25.8547V29.3228H26.05V29.7136H25.8547V29.909H24.0963V29.7136H24.2917V27.7598H24.0963Z" fill="#F3F3F3"/>
<path d="M26.0876 27.7598V27.5645H26.8691V27.7598H26.6738V29.7136H27.6506V29.5182H27.846V29.3228H28.0414V29.7136H27.846V29.909H26.0876V29.7136H26.283V27.7598H26.0876Z" fill="#F3F3F3"/>
<path d="M28.079 27.7598V27.5645H28.8605V27.7598H28.6651V29.7136H29.642V29.5182H29.8373V29.3228H30.0327V29.7136H29.8373V29.909H28.079V29.7136H28.2744V27.7598H28.079Z" fill="#F3F3F3"/>
<path d="M30.0702 27.7598V27.5645H30.8517V27.7598H30.6563V29.7136H31.6332V29.5182H31.8286V29.3228H32.0239V29.7136H31.8286V29.909H30.0702V29.7136H30.2656V27.7598H30.0702Z" fill="#F3F3F3"/>
<path d="M32.0615 27.7598V27.5645H32.843V27.7598H32.6477V29.7136H33.6245V29.5182H33.8199V29.3228H34.0153V29.7136H33.8199V29.909H32.0615V29.7136H32.2569V27.7598H32.0615Z" fill="#F3F3F3"/>
<path d="M7.7378 33.4253H7.54243V33.2299H7.7378V33.4253ZM7.7378 32.0577V32.253H7.54243V32.0577H7.7378ZM6.37017 33.4253V33.2299H6.56554V33.4253H6.37017ZM6.37017 32.253V32.0577H6.56554V32.253H6.37017ZM6.76091 33.0345V32.8392H6.1748V32.6438H6.76091V32.4484H6.95628V31.8623H7.15165V32.4484H7.34702V32.6438H7.93317V32.8392H7.34702V33.0345H7.15165V33.6207H6.95628V33.0345H6.76091ZM6.76091 33.2299H6.56554V33.0345H6.76091V33.2299ZM6.76091 32.4484H6.56554V32.253H6.76091V32.4484ZM7.54243 33.0345V33.2299H7.34702V33.0345H7.54243ZM7.54243 32.4484H7.34702V32.253H7.54243V32.4484Z" fill="#F3F3F3"/>
<path d="M8.16602 31.6671V31.4717H8.9475V31.6671H8.75213V33.6208H9.72898V33.4255H9.92438V33.23H10.1198V33.6208H9.92438V33.8162H8.16602V33.6208H8.36139V31.6671H8.16602Z" fill="#F3F3F3"/>
<path d="M10.1573 31.6671V31.4717H10.9388V31.6671H10.7435V33.6208H11.7203V33.4255H11.9157V33.23H12.1111V33.6208H11.9157V33.8162H10.1573V33.6208H10.3527V31.6671H10.1573Z" fill="#F3F3F3"/>
<path d="M12.1486 31.6671V31.4717H12.9301V31.6671H12.7347V33.6208H13.7116V33.4255H13.9069V33.23H14.1023V33.6208H13.9069V33.8162H12.1486V33.6208H12.3439V31.6671H12.1486Z" fill="#F3F3F3"/>
<path d="M14.1399 31.6671V31.4717H14.9214V31.6671H14.726V33.6208H15.7029V33.4255H15.8983V33.23H16.0937V33.6208H15.8983V33.8162H14.1399V33.6208H14.3353V31.6671H14.1399Z" fill="#F3F3F3"/>
<path d="M16.1312 31.6671V31.4717H16.9127V31.6671H16.7174V33.6208H17.6942V33.4255H17.8896V33.23H18.085V33.6208H17.8896V33.8162H16.1312V33.6208H16.3266V31.6671H16.1312Z" fill="#F3F3F3"/>
<path d="M18.1226 31.6671V31.4717H18.9041V31.6671H18.7087V33.6208H19.6856V33.4255H19.8809V33.23H20.0763V33.6208H19.8809V33.8162H18.1226V33.6208H18.3179V31.6671H18.1226Z" fill="#F3F3F3"/>
<path d="M20.1138 31.6671V31.4717H20.8953V31.6671H20.6999V33.6208H21.6768V33.4255H21.8721V33.23H22.0675V33.6208H21.8721V33.8162H20.1138V33.6208H20.3091V31.6671H20.1138Z" fill="#F3F3F3"/>
<path d="M22.105 31.6671V31.4717H22.8865V31.6671H22.6911V33.6208H23.668V33.4255H23.8633V33.23H24.0587V33.6208H23.8633V33.8162H22.105V33.6208H22.3004V31.6671H22.105Z" fill="#F3F3F3"/>
<path d="M24.0963 31.6671V31.4717H24.8778V31.6671H24.6824V33.6208H25.6593V33.4255H25.8547V33.23H26.05V33.6208H25.8547V33.8162H24.0963V33.6208H24.2917V31.6671H24.0963Z" fill="#F3F3F3"/>
<path d="M26.0876 31.6671V31.4717H26.8691V31.6671H26.6738V33.6208H27.6506V33.4255H27.846V33.23H28.0414V33.6208H27.846V33.8162H26.0876V33.6208H26.283V31.6671H26.0876Z" fill="#F3F3F3"/>
<path d="M28.079 31.6671V31.4717H28.8605V31.6671H28.6651V33.6208H29.642V33.4255H29.8373V33.23H30.0327V33.6208H29.8373V33.8162H28.079V33.6208H28.2744V31.6671H28.079Z" fill="#F3F3F3"/>
<path d="M30.0702 31.6671V31.4717H30.8517V31.6671H30.6563V33.6208H31.6332V33.4255H31.8286V33.23H32.0239V33.6208H31.8286V33.8162H30.0702V33.6208H30.2656V31.6671H30.0702Z" fill="#F3F3F3"/>
<path d="M12.1486 35.5743V35.3789H12.9301V35.5743H12.7347V37.5279H13.7116V37.3326H13.9069V37.1373H14.1023V37.5279H13.9069V37.7235H12.1486V37.5279H12.3439V35.5743H12.1486Z" fill="#F3F3F3"/>
<path d="M14.1399 35.5743V35.3789H14.9214V35.5743H14.726V37.5279H15.7029V37.3326H15.8983V37.1373H16.0937V37.5279H15.8983V37.7235H14.1399V37.5279H14.3353V35.5743H14.1399Z" fill="#F3F3F3"/>
<path d="M16.1312 35.5743V35.3789H16.9127V35.5743H16.7174V37.5279H17.6942V37.3326H17.8896V37.1373H18.085V37.5279H17.8896V37.7235H16.1312V37.5279H16.3266V35.5743H16.1312Z" fill="#F3F3F3"/>
<path d="M18.1226 35.5743V35.3789H18.9041V35.5743H18.7087V37.5279H19.6856V37.3326H19.8809V37.1373H20.0763V37.5279H19.8809V37.7235H18.1226V37.5279H18.3179V35.5743H18.1226Z" fill="#F3F3F3"/>
<path d="M20.1138 35.5743V35.3789H20.8953V35.5743H20.6999V37.5279H21.6768V37.3326H21.8721V37.1373H22.0675V37.5279H21.8721V37.7235H20.1138V37.5279H20.3091V35.5743H20.1138Z" fill="#F3F3F3"/>
<path d="M22.105 35.5743V35.3789H22.8865V35.5743H22.6911V37.5279H23.668V37.3326H23.8633V37.1373H24.0587V37.5279H23.8633V37.7235H22.105V37.5279H22.3004V35.5743H22.105Z" fill="#F3F3F3"/>
</g>
<g filter="url(#filter0_f_6131_7626)">
<path d="M18 27.7615C22.8389 27.7615 26.7616 23.8388 26.7616 18.9999C26.7616 14.161 22.8389 10.2383 18 10.2383C13.1611 10.2383 9.2384 14.161 9.2384 18.9999C9.2384 23.8388 13.1611 27.7615 18 27.7615Z" fill="#0143EB"/>
</g>
<path d="M17.2051 7.87305H18.7946V11.0522H22.7685V14.2314H13.2313V11.0522H17.2051V7.87305Z" fill="#F3F3F3"/>
<path d="M13.2313 17.4106H10.0521V14.2314H13.2313V17.4106Z" fill="#F3F3F3"/>
<path d="M22.7685 20.5893V17.4102H13.2313V20.5893H22.7685Z" fill="#F3F3F3"/>
<path d="M22.7686 23.769V20.5898H25.9477V23.769H22.7686Z" fill="#F3F3F3"/>
<path d="M13.2313 23.7686V26.9477H17.2051V30.1269H18.7946V26.9477H22.7685V23.7686H13.2313Z" fill="#F3F3F3"/>
<path d="M13.2313 23.7682V22.1787H10.0521V23.7682H13.2313Z" fill="#F3F3F3"/>
<path d="M22.7686 14.2314H25.9477V15.8209H22.7686V14.2314Z" fill="#F3F3F3"/>
</g>
</g>
<defs>
<filter id="filter0_f_6131_7626" x="8.25438" y="9.25426" width="19.4912" height="19.4915" filterUnits="userSpaceOnUse" color-interpolation-filters="sRGB">
<feFlood flood-opacity="0" result="BackgroundImageFix"/>
<feBlend mode="normal" in="SourceGraphic" in2="BackgroundImageFix" result="shape"/>
<feGaussianBlur stdDeviation="0.492012" result="effect1_foregroundBlur_6131_7626"/>
</filter>
<clipPath id="clip0_6131_7626">
<rect width="35" height="35" fill="white" transform="translate(0.5 1.5)"/>
</clipPath>
</defs>
</svg>
